<svg height='100px' width='100px'  fill="#FFF" xmlns="http://www.w3.org/2000/svg" xmlns:xlink="http://www.w3.org/1999/xlink" version="1.1" x="0px" y="0px" viewBox="0 0 100 100" enable-background="new 0 0 100 100" xml:space="preserve"><g display="none"><g display="inline" opacity="0.2"><polygon fill="none" stroke="#FFF" stroke-width="3" stroke-linecap="round" stroke-linejoin="round" stroke-miterlimit="10" points="    59.318,8.645 80.04,8.645 91.933,34.394 50,91.355 8.067,34.394 19.96,8.645 40.682,8.645   "></polygon><line fill="none" stroke="#FFF" stroke-width="3" stroke-linecap="round" stroke-linejoin="round" stroke-miterlimit="10" x1="8.067" y1="34.394" x2="91.825" y2="34.394"></line><polyline fill="none" stroke="#FFF" stroke-width="3" stroke-linecap="round" stroke-linejoin="round" stroke-miterlimit="10" points="    80.04,8.645 67.166,34.394 50,8.645 32.834,34.394 19.96,8.645   "></polyline><line fill="none" stroke="#FFF" stroke-width="3" stroke-linecap="round" stroke-linejoin="round" stroke-miterlimit="10" x1="32.834" y1="34.394" x2="50" y2="90.183"></line><line fill="none" stroke="#FFF" stroke-width="3" stroke-linecap="round" stroke-linejoin="round" stroke-miterlimit="10" x1="67.166" y1="34.394" x2="50" y2="90.183"></line></g></g><g><g><g><path d="M20.203,10.893c8.085,3.337,17.089,0.449,25.479,0.33C57.128,11.06,68.551,12.166,80,12c3.866-0.056,3.871-6.056,0-6     C69.194,6.157,58.413,5.299,47.61,5.217c-8.326-0.063-17.861,3.171-25.813-0.11C18.221,3.631,16.678,9.438,20.203,10.893     L20.203,10.893z"></path></g></g><g><g><path d="M11.25,33.25c0.988-8.966,6.321-16.456,10.84-23.986c1.996-3.326-3.193-6.341-5.181-3.028     C11.743,14.846,6.374,23.047,5.25,33.25C4.827,37.093,10.831,37.052,11.25,33.25L11.25,33.25z"></path></g></g><g><g><path d="M77.857,10.547c3.248,8.332,5.49,17.082,9.803,24.967c1.857,3.395,7.038,0.368,5.181-3.028     c-4.06-7.423-6.139-15.687-9.197-23.533C82.254,5.389,76.45,6.938,77.857,10.547L77.857,10.547z"></path></g></g><g><g><path d="M5.66,35.014c3.156,4.098,7.078,7.159,9.922,11.548c3.525,5.441,6.793,10.948,10.759,16.088     c3.919,5.08,7.711,10.257,11.53,15.412c3.517,4.746,7.796,8.818,10.789,13.952c1.505,2.582,5.59,1.471,5.59-1.514     c0-0.333,0-0.667,0-1c0-3.869-6-3.869-6,0c0,0.333,0,0.667,0,1c1.863-0.505,3.727-1.009,5.59-1.514     c-2.565-4.401-5.945-8.161-9.223-12.033c-4.239-5.008-7.928-10.538-11.896-15.763c-3.934-5.181-7.477-10.492-10.918-16.011     c-1.385-2.223-2.726-4.686-4.497-6.633c-2.065-2.271-4.586-4.121-6.466-6.561C8.515,28.967,3.298,31.948,5.66,35.014L5.66,35.014     z"></path></g></g><g><g><path d="M53.84,91.014c7.904-10.301,15.769-20.627,22.973-31.437c3.468-5.204,6.763-10.516,10.011-15.859     c1.951-3.21,5.259-5.704,6.319-9.421c1.063-3.729-4.727-5.309-5.786-1.595c-0.917,3.215-4.457,5.92-6.197,8.783     c-3.088,5.08-6.263,10.096-9.527,15.063c-7.128,10.85-15.075,21.144-22.973,31.437C46.304,91.056,51.52,94.039,53.84,91.014     L53.84,91.014z"></path></g></g><g><g><path d="M8.953,36.393c6.589,0.951,13.125,0.96,19.768,0.784c7.559-0.201,15.025,0.194,22.57,0.586     c6.552,0.341,13.098,0.377,19.654,0.544c6.351,0.163,12.612,0.545,18.853-0.915c3.767-0.881,2.169-6.666-1.595-5.785     c-5.673,1.327-11.486,0.897-17.258,0.7c-6.553-0.224-13.101-0.222-19.654-0.544c-6.265-0.308-12.499-0.767-18.776-0.678     c-7.341,0.103-14.666,0.576-21.967-0.477C6.765,30.062,5.135,35.842,8.953,36.393L8.953,36.393z"></path></g></g><g><g><path d="M29.857,35.797c3.905,10.299,7.604,20.275,9.508,31.12c0.912,5.191,1.214,15.36,6.121,18.673     c3.217,2.172,6.216-3.029,3.028-5.181c0.441,0.298-0.5-1.778-0.683-2.378c-0.489-1.601-0.836-3.248-1.192-4.881     c-0.794-3.649-1.403-7.339-2.045-11.017c-1.69-9.678-5.479-18.774-8.95-27.931C34.285,30.621,28.483,32.173,29.857,35.797     L29.857,35.797z"></path></g></g><g><g><path d="M63.857,35.203c-2.284,11.566-6.606,22.519-9.217,33.96c-0.789,3.457-1.534,6.922-2.344,10.375     c-0.448,1.912-0.927,3.816-1.449,5.708c-0.397,1.439-1.809,3.026-0.111,1.914c-3.221,2.111-0.218,7.309,3.028,5.181     c2.015-1.32,2.504-4.177,3.101-6.34c1.174-4.256,2.082-8.591,3.038-12.9c2.715-12.241,7.302-23.958,9.74-36.303     C70.389,33.019,64.606,31.408,63.857,35.203L63.857,35.203z"></path></g></g><g><g><path d="M69.371,35.121c3.3-3.693,5.577-8.684,7.938-12.988c1.703-3.104,6.043-8.906,4.281-12.647     c-1.648-3.499-6.819-0.451-5.181,3.028c-0.834-1.771-0.051-2.249-0.631-0.669c-0.262,0.714-0.624,1.399-0.953,2.083     c-1.106,2.299-2.339,4.539-3.575,6.769c-1.776,3.205-3.988,7.793-6.122,10.182C62.56,33.754,66.789,38.013,69.371,35.121     L69.371,35.121z"></path></g></g><g><g><path d="M35.621,34.621C41.317,27.294,47,19.946,51.84,12.014c2.021-3.312-3.169-6.325-5.181-3.028     c-4.574,7.495-9.898,14.468-15.281,21.393C29.035,33.394,33.249,37.673,35.621,34.621L35.621,34.621z"></path></g></g><g><g><path d="M16.91,10.264c2.758,3.624,4.831,7.629,6.98,11.629c2.103,3.913,5.129,7.622,6.522,11.867     c0.994,3.028,4.667,2.665,5.786,0c0.065-0.154,0.13-0.309,0.195-0.463c1.498-3.566-4.311-5.106-5.786-1.595     c-0.064,0.154-0.129,0.309-0.194,0.463c1.929,0,3.857,0,5.786,0c-1.416-4.315-4.172-8.07-6.402-11.98     c-2.502-4.388-4.633-8.912-7.706-12.95C19.78,4.2,14.565,7.184,16.91,10.264L16.91,10.264z"></path></g></g><g><g><path d="M47.16,11.264c3.167,5.18,5.723,10.739,8.819,15.968c2.023,3.417,5.516,10.744,10.536,8.608     c3.55-1.511,0.489-6.678-3.028-5.181c1.992-0.848,2.597,0.494,1.257-1.039c-0.63-0.722-1.144-1.558-1.674-2.352     c-1.578-2.365-2.975-4.854-4.364-7.332c-2.167-3.865-4.053-7.921-6.364-11.701C50.326,4.941,45.136,7.954,47.16,11.264     L47.16,11.264z"></path></g></g></g></svg>