<svg height='100px' width='100px'  fill="#FFF" xmlns="http://www.w3.org/2000/svg" xmlns:xlink="http://www.w3.org/1999/xlink" version="1.1" x="0px" y="0px" viewBox="0 0 100 100" enable-background="new 0 0 100 100" xml:space="preserve"><g display="none"><g display="inline" opacity="0.2"><path fill="none" stroke="#FFF" stroke-width="3" stroke-linecap="round" stroke-linejoin="round" stroke-miterlimit="10" d="    M90.68,50c0,0-18.213,25.291-40.679,25.291C27.533,75.291,9.32,50,9.32,50s18.213-25.291,40.681-25.291    C72.467,24.709,90.68,50,90.68,50z"></path><circle fill="none" stroke="#FFF" stroke-width="3" stroke-linecap="round" stroke-linejoin="round" stroke-miterlimit="10" cx="50" cy="50" r="16.667"></circle><circle cx="50" cy="50" r="7.006"></circle></g></g><g><g><g><path d="M54.182,43.077c-5.256-2.908-12.69,0.711-13.624,6.692c-0.899,5.764,4.267,11.339,10.056,10.458     c4.127-0.629,7.14-5.305,7.972-9.048c1.088-4.896-1.511-9.013-6.585-9.511c-3.851-0.378-3.814,5.625,0,6     c0.012,0.001,0.439,0.116,0.514,0.155c0.367,0.192-0.079-0.307,0.285,0.358c-0.32-0.584-0.007,0.078,0.033,0.232     c0.206,0.802-0.021-0.597,0.021,0.259c0.014,0.281-0.009,0.562-0.03,0.842c0.049-0.638-0.075,0.302-0.089,0.362     c-0.424,1.906-1.611,3.621-3.146,4.431c0.593-0.313-1.093,0.16-0.305,0.091c-0.124,0.011-0.929-0.097-0.288,0.021     c-0.059-0.011-0.854-0.327-0.381-0.1c-0.87-0.418-2.062-1.668-2.187-2.882c-0.226-2.178,2.856-4.212,4.725-3.178     C54.541,50.132,57.566,44.95,54.182,43.077L54.182,43.077z"></path></g></g><g><g><path d="M42.742,45.819c-0.006,0.013-0.012,0.026-0.019,0.039c-0.982,2.04,0.193,4.458,2.591,4.514     c1.822,0.043,3.935-1.334,5.533-2.115c-1.369-1.368-2.737-2.736-4.105-4.104c-1.057,1.703-2.275,3.296-3.333,5     c-1.503,2.423,1.633,5.958,4.104,4.104c1.21-0.907,2.418-1.815,3.668-2.667c-1.369-1.368-2.737-2.736-4.105-4.104     c-1.099,1.454-2.234,2.88-3.334,4.333c-1.539,2.035,1.029,5.361,3.389,4.407c3.827-1.548,7.009-4.316,8.095-8.429     c-1.671,0.441-3.343,0.883-5.014,1.324c-0.557-0.655-0.14-0.062-0.121,0.098c0.078,0.659,0.042,1.33-0.008,1.99     c-0.069,0.925-0.458,1.949-0.871,2.337c-0.396,0.372-1.317,0.535-0.396,0.467c1.377,0.278,2.116,0.95,2.217,2.016     c0.016,0.832,0.184-0.208-0.03,0.248c0.463-0.986,1.439-1.552,2.511-2.019c-1.211-1.57-2.423-3.141-3.635-4.711     c-1.381,1.181-2.043,2.672-2.803,4.273c-1.647,3.476,3.524,6.523,5.182,3.028c0.533-1.125,0.898-2.233,1.863-3.06     c1.014-0.867,1.111-2.54,0.47-3.635c-0.898-1.533-2.605-1.729-4.104-1.076c-2.424,1.056-4.776,3.24-5.322,5.927     c-0.645,3.165,2,5.854,5.188,4.734c5.431-1.907,7.888-10.398,4.102-14.859c-1.484-1.75-4.471-0.733-5.014,1.324     c-0.515,1.949-2.038,3.483-3.905,4.238c1.13,1.469,2.259,2.938,3.389,4.407c1.099-1.454,2.234-2.88,3.334-4.333     c1.822-2.41-1.706-5.739-4.105-4.104c-1.249,0.851-2.457,1.76-3.666,2.667c1.367,1.368,2.736,2.736,4.104,4.104     c1.057-1.704,2.275-3.297,3.333-5c1.689-2.723-1.547-5.354-4.105-4.104c-0.613,0.3-1.236,0.579-1.86,0.857     c0.105-0.047-1.022,0.44-0.588,0.259c-0.506,0.21-1.112,0.155-0.056,0.179c0.863,1.505,1.727,3.01,2.59,4.514     c0.007-0.013,0.013-0.026,0.02-0.039C49.594,45.379,44.421,42.334,42.742,45.819L42.742,45.819z"></path></g></g><g><g><path d="M37.924,45.514c6.975-13.979,29.231-6.302,23.79,9.137c-2.352,6.672-9.129,8.826-15.375,6.623     c-6.989-2.465-9.271-9.943-7.113-16.477c1.218-3.684-4.577-5.25-5.785-1.595c-3.096,9.37,0.792,18.988,9.793,23.229     c9.091,4.283,19.187,0.519,23.527-8.419c10.664-21.959-23.526-36.556-34.019-15.526C31.021,45.937,36.195,48.977,37.924,45.514     L37.924,45.514z"></path></g></g><g><g><path d="M11.924,51.181C23.349,33.418,46.685,19.99,66.527,32.915c3.252,2.119,6.256-3.078,3.027-5.181     c-22.677-14.771-49.673-0.01-62.812,20.419C4.643,51.417,9.838,54.423,11.924,51.181L11.924,51.181z"></path></g></g><g><g><path d="M30.588,65.389c-7.712-3.892-14.068-9.081-17.997-16.903c-1.737-3.458-6.913-0.419-5.182,3.028     c4.349,8.656,11.604,14.742,20.149,19.055C31.004,72.308,34.042,67.132,30.588,65.389L30.588,65.389z"></path></g></g><g><g><path d="M66.535,33.227c4.664,1.929,8.009,5.493,11.938,8.524c2.742,2.116,4.862,4.332,6.936,7.097     c0.759,1.011,2.339,1.389,3.002,2.323c0.863-1.505,1.728-3.01,2.591-4.514c-0.111,0.003-0.224,0.007-0.335,0.011     c-3.859,0.126-3.871,6.126,0,6c0.111-0.004,0.224-0.007,0.335-0.011c2.094-0.068,3.975-2.564,2.59-4.514     c-0.905-1.276-2.162-2.091-3.44-2.972c-1.003-0.691-1.841-2.391-2.561-3.351c-1.124-1.498-2.719-2.624-4.178-3.774     c-5.017-3.955-9.31-8.133-15.282-10.605C64.555,25.961,63.013,31.769,66.535,33.227L66.535,33.227z"></path></g></g><g><g><path d="M29.202,71.56c6.155,1.775,11.178,5.389,17.69,6.454c6.491,1.062,12.903-0.38,18.894-2.862     c10.754-4.454,21.537-13.983,27.472-23.97c1.98-3.334-3.207-6.351-5.182-3.028c-5.144,8.658-14.198,16.358-23.143,20.848     c-5.635,2.828-11.95,3.962-18.176,2.944c-5.809-0.95-10.435-4.577-15.96-6.17C27.071,64.7,25.492,70.49,29.202,71.56     L29.202,71.56z"></path></g></g><g><g><path d="M46.82,50.41c-1.453,0.758-2.35,1.945-2.486,3.59c-0.136,1.632,1.468,3,3,3c1.738,0,2.864-1.371,3-3     c0.002-0.028,0.005-0.056,0.007-0.083c-0.036,0.266-0.071,0.531-0.107,0.797c0.011-0.059,0.029-0.114,0.056-0.167     c-0.101,0.239-0.201,0.478-0.302,0.716c0.228-0.39-0.566,0.62-0.191,0.274c-0.694,0.641-0.227,0.198,0.052,0.052     c1.449-0.756,1.873-2.745,1.077-4.104C50.069,50.026,48.27,49.653,46.82,50.41L46.82,50.41z"></path></g></g></g></svg>