<svg height='100px' width='100px'  fill="#FFF" xmlns="http://www.w3.org/2000/svg" xmlns:xlink="http://www.w3.org/1999/xlink" version="1.1" x="0px" y="0px" viewBox="0 0 100 100" enable-background="new 0 0 100 100" xml:space="preserve"><g display="none"><polygon display="inline" opacity="0.2" fill="none" stroke="#FFF" stroke-width="3" stroke-linecap="round" stroke-linejoin="round" stroke-miterlimit="10" points="   44.081,10.664 62.085,10.664 51.728,38.039 68.003,38.039 31.997,89.336 47.124,48.376 33.231,48.376  "></polygon></g><g><g><g><path d="M43.25,14c2.603-0.049,5.209-0.336,7.808-0.484c1.74-0.1,3.481-0.165,5.225-0.182c0.822-0.008,1.644,0.018,2.465,0.065     c1.025,0.059,0.801,0.516,0.132-0.278c2.496,2.963,6.719-1.304,4.242-4.242c-1.866-2.215-6.5-1.575-9.006-1.502     C50.489,7.482,46.874,7.931,43.25,8C39.386,8.073,39.379,14.073,43.25,14L43.25,14z"></path></g></g><g><g><path d="M51.202,40.143c2.401,0.35,4.824,0.406,7.245,0.52c1.481,0.07,2.961,0.161,4.438,0.308     c0.413,0.041,0.817,0.115,1.226,0.194c1.109,0.215,0.612,0.426-0.201-0.65c2.301,3.046,7.515,0.062,5.182-3.028     c-1.751-2.318-4.713-2.396-7.401-2.626c-2.883-0.248-6.273-0.121-8.892-0.503C49.015,33.806,47.386,39.586,51.202,40.143     L51.202,40.143z"></path></g></g><g><g><path d="M31.202,51.143c4.248,1.331,8.801,0.451,13,1.75c3.707,1.146,5.279-4.646,1.596-5.786c-4.235-1.31-8.771-0.424-13-1.75     C29.095,44.197,27.523,49.99,31.202,51.143L31.202,51.143z"></path></g></g><g><g><path d="M34.393,48.797c2.726-12.371,7.938-23.958,12.948-35.533c1.52-3.512-3.648-6.571-5.182-3.028     c-5.211,12.041-10.717,24.096-13.552,36.967C27.776,50.973,33.561,52.576,34.393,48.797L34.393,48.797z"></path></g></g><g><g><path d="M54.643,38.047c2.68-8.606,5.174-17.092,10.448-24.533c2.242-3.165-2.964-6.157-5.182-3.028     c-5.562,7.849-8.225,16.886-11.052,25.967C47.704,40.157,53.496,41.729,54.643,38.047L54.643,38.047z"></path></g></g><g><g><path d="M34.341,90.514c2.894-5.916,4.349-12.367,6.688-18.5c2.73-7.154,6.082-14.077,8.863-21.217     c1.406-3.61-4.396-5.159-5.785-1.595c-2.592,6.651-5.497,13.167-8.25,19.75c-2.535,6.062-3.808,12.625-6.698,18.533     C27.467,90.947,32.641,93.99,34.341,90.514L34.341,90.514z"></path></g></g><g><g><path d="M35.341,89.764c10.896-16.635,22.991-32.441,34-49c2.148-3.232-3.051-6.233-5.182-3.028     c-11.009,16.559-23.103,32.365-34,49C28.032,89.983,33.23,92.986,35.341,89.764L35.341,89.764z"></path></g></g></g></svg>