<svg height='100px' width='100px'  fill="#FFF" xmlns="http://www.w3.org/2000/svg" xmlns:xlink="http://www.w3.org/1999/xlink" version="1.1" x="0px" y="0px" viewBox="0 0 100 100" enable-background="new 0 0 100 100" xml:space="preserve"><g display="none"><g display="inline" opacity="0.2"><g><line fill="none" stroke="#FFF" stroke-width="3" stroke-linecap="round" stroke-linejoin="round" stroke-miterlimit="10" x1="37.938" y1="76.535" x2="62.062" y2="76.535"></line><line fill="none" stroke="#FFF" stroke-width="3" stroke-linecap="round" stroke-linejoin="round" stroke-miterlimit="10" x1="37.938" y1="83.771" x2="62.062" y2="83.771"></line><line fill="none" stroke="#FFF" stroke-width="3" stroke-linecap="round" stroke-linejoin="round" stroke-miterlimit="10" x1="43.55" y1="91.008" x2="56.45" y2="91.008"></line></g><g><path fill="none" stroke="#FFF" stroke-width="3" stroke-linecap="round" stroke-linejoin="round" stroke-miterlimit="10" d="     M77.298,36.288C77.298,21.213,65.077,8.992,50,8.992S22.702,21.213,22.702,36.288c0,8.033,3.491,15.232,9.015,20.228l6.222,10.37     h24.123l6.219-10.368C73.807,51.523,77.298,44.323,77.298,36.288z"></path><polyline fill="none" stroke="#FFF" stroke-width="3" stroke-linecap="round" stroke-linejoin="round" stroke-miterlimit="10" points="     46.834,67.037 42.009,49.849 57.991,49.849 53.166,67.037    "></polyline></g></g></g><g><g><g><path d="M41.143,68.797c0.81-4.846-1.684-8.651-4.481-12.413c-3.806-5.118-5.959-9.489-7.337-15.804     c-1.629-7.468-1.109-14.902,4.056-20.849c4.594-5.289,11.611-7.453,18.403-7.437c6.272,0.014,12.125,3.846,16.518,8.024     c4.563,4.339,5.603,11.453,5.53,17.416c-0.082,6.708-2.589,11.373-7.051,16.18c-3.53,3.803-6.795,7.59-7.924,12.789     c1.671-0.441,3.343-0.883,5.014-1.324c-0.177-0.214-0.354-0.429-0.531-0.643c-2.1-3.23-7.296-0.227-5.181,3.028     c0.446,0.686,0.905,1.263,1.469,1.857c1.502,1.582,4.536,0.877,5.014-1.324c1.483-6.833,7.909-11.025,11.657-16.615     c3.621-5.401,3.93-13.096,3.293-19.339C78.277,19.46,67.625,7.959,54.468,6.513c-14.177-1.558-28.931,6.95-31.615,21.574     c-1.385,7.542,0.658,15.905,3.254,22.96c1.013,2.752,2.827,5.03,4.59,7.335c1.674,2.189,5.167,5.792,4.66,8.82     C34.725,70.986,40.506,72.607,41.143,68.797L41.143,68.797z"></path></g></g><g><g><path d="M37.953,70.893c6.622,1.168,13.64,0.839,20.297,0.107c3.803-0.417,3.843-6.422,0-6     c-6.059,0.666-12.67,1.171-18.703,0.107C35.765,64.44,34.147,70.222,37.953,70.893L37.953,70.893z"></path></g></g><g><g><path d="M39.357,49.797c2.185,6.027,3.522,12.275,5,18.5c0.894,3.764,6.679,2.167,5.786-1.595c-1.479-6.225-2.816-12.473-5-18.5     C43.835,44.594,38.036,46.151,39.357,49.797L39.357,49.797z"></path></g></g><g><g><path d="M42.25,51.5c5.501-0.021,10.999-0.23,16.5-0.25c-0.964-1.266-1.929-2.532-2.893-3.797     c-0.964,6.449-4.374,12.152-5.75,18.5c-0.817,3.772,4.966,5.375,5.786,1.595c1.375-6.347,4.785-12.051,5.75-18.5     c0.282-1.888-0.766-3.805-2.893-3.797c-5.501,0.02-10.999,0.229-16.5,0.25C38.381,45.514,38.38,51.515,42.25,51.5L42.25,51.5z"></path></g></g><g><g><path d="M35.953,79.393c8.969,2.423,18.146,1.202,27.297,1.107c3.867-0.04,3.871-6.04,0-6     c-8.578,0.089-17.297,1.378-25.703-0.893C33.807,72.597,32.221,78.385,35.953,79.393L35.953,79.393z"></path></g></g><g><g><path d="M37.25,88c8.333-0.209,16.666-0.018,25,0c3.87,0.008,3.869-5.992,0-6c-8.334-0.018-16.667-0.209-25,0     C33.388,82.097,33.378,88.097,37.25,88L37.25,88z"></path></g></g><g><g><path d="M41.453,93.643c5.067,0.887,10.181,0.316,15.25,1c3.781,0.511,5.414-5.27,1.595-5.785c-5.061-0.684-10.223-0.121-15.25-1     C39.265,87.195,37.646,92.977,41.453,93.643L41.453,93.643z"></path></g></g></g></svg>