<svg height='100px' width='100px'  fill="#FFF" xmlns="http://www.w3.org/2000/svg" xmlns:xlink="http://www.w3.org/1999/xlink" version="1.1" x="0px" y="0px" viewBox="0 0 100 100" enable-background="new 0 0 100 100" xml:space="preserve"><g><path d="M80.2,19.2c3.9,5.6,7,11.7,9.7,18c0.6,1.3,0.9,2.6,1.2,4c1.2,6.5,2.4,12.9,0.9,19.5c-0.9,4.1-1.2,8.4-2.3,12.5   c-1.3,5-3.2,9.9-6,14.3c-1.4,2.2-3.7,3.4-6,4.3c-2.6,1-5.5,1.4-8.3,2c-2.1,0.5-4.2,1-6.3,1.1c-4.6,0.3-9.1-0.2-13.7-0.8   c-2.1-0.3-4.3-0.5-6.4-0.8c-1.5-0.3-3-0.6-4.5-1.1c-5.2-1.6-10-4.3-14.6-7.1c-1.8-1.1-3.2-3.1-4.6-4.8c-1.5-1.9-2.9-3.9-4.1-5.9   C14,72.3,13,70.3,12,68.3c-0.9-1.8-1.9-3.7-2.7-5.6c-0.6-1.6-0.9-3.3-1.2-5c-0.3-2.1-0.5-4.3-0.7-6.4C7.1,46.5,7.3,41.7,8.8,37   c0.5-1.8,1.3-3.6,1.8-5.4c0.8-3.3,2.6-6,4.6-8.6c1.4-1.9,2.8-3.7,4.2-5.6c1.6-2.3,3.7-4.1,6.2-5.3c3-1.4,5.8-3,8.7-4.5   C38.4,5.3,43,4.9,47.6,5c1.9,0.1,3.8,0.2,5.7,0.3c9.1,0.5,16.9,4,23.7,9.9C78.3,16.3,79.1,17.9,80.2,19.2z M26.3,77.3   c1.2,1.5,2.3,3,3.5,4.5c0.8,0.9,1.7,1.7,2.7,2.4c1.6,1.1,3.4,2.1,5.1,3.1c2.8,1.6,5.6,3.2,8.9,3.4C50.3,91,54.1,92,58,91.1   c1.5-0.4,3.1-0.6,4.6-0.8c4.6-0.8,8.7-2.8,12.2-5.9c1.6-1.5,3.5-3.1,4.3-5c1.7-4.3,3.1-8.8,4.1-13.3c0.8-3.3,0.9-6.9,1.3-10.3   c0.7-5.7-0.2-11.3-1.7-16.6c-2.2-7.8-6.4-14.7-11.7-20.9c-5.4-6.3-12.2-9.8-20.6-9.8c-0.9,0-1.7-0.1-2.6-0.1   c-2.4-0.3-4.6,0.2-6.7,1.4c-2.3,1.2-4.6,2.4-7,3.4c-2.5,1-4.4,2.6-6,4.7c-1.6,2.1-3.1,4.2-4.7,6.2c-4,5.2-5.4,11.5-6.7,17.7   c0,0.2,0,0.3,0,0.5c0.1,5.1,0.2,10.2,0.5,15.3c0.1,1.5,0.8,3,1.3,4.4c0.2,0.6,0.6,1.1,0.8,1.6C20.3,68.8,23.3,73.1,26.3,77.3z"></path><path d="M32.2,65.2c-1.2-2-2.5-4.1-3.7-6.2c-2-3.4-2.2-7-1.7-10.8c0.2-1.7,0.1-3.5,0.6-5.1c1-3.6,2.3-7.3,5.3-9.9   c1.9-1.6,3.7-3.4,5.9-4.6c1.7-1,3.9-1.3,6-1.5c2.4-0.3,4.8-0.3,7.2-0.4c4.7-0.1,8.7,1.7,12.5,4.4c1.2,0.9,2.5,1.8,3.7,2.8   c0.7,0.5,1.3,1.2,1.7,1.9c1.8,3.4,3.7,6.9,5.2,10.4c1.8,4,1.3,8.3,0.5,12.5c-0.6,3.4-2,6.6-4.3,9.3c-0.2,0.2-0.3,0.4-0.4,0.6   c-1.4,3.1-3.6,5.3-6.7,6.9c-3.3,1.7-6.5,2.5-10.1,1.7c-0.8-0.2-1.5-0.4-2.3-0.5c-6.9-1.1-12.1-5.2-17.4-9.3   C33.4,66.9,32.9,66,32.2,65.2z M39.3,62.5c1.7,3,4.5,4.9,7.2,6.8c3.3,2.4,7,4.2,11.1,4.5c1.1,0.1,2.8,0.1,3.4-0.6   c1.7-1.9,3.7-3.5,4.8-6c1.8-4.1,2.7-8.4,2.8-12.8c0.1-3.4-0.4-6.7-3.8-8.6c-0.4-0.2-0.6-0.6-0.8-1c-1.3-1.9-2.5-3.7-3.7-5.6   c-1-1.4-1.8-3-3.1-4.1c-4-3.8-9.8-6.7-15.5-2.3c-1.5,1.2-3.1,2.2-4.5,3.4c-0.6,0.5-1.2,1.1-1.4,1.8c-0.7,2.3-1.4,4.6-1.7,7   C33.4,51.5,35.2,57.3,39.3,62.5z"></path><path d="M60.9,50.3c1.5,1.6,1.5,4.6,1.2,7.7c-0.1,1.1-0.6,1.8-1.8,2.2c-1.4,0.4-2.5,1.4-3.9,1.9c-2.8,1-5.4,0.1-7.9-1.2   c-0.1-0.1-0.3-0.2-0.4-0.3c-3.4-3.1-4-9.7-1.1-13.3c1.5-1.8,3.7-2.5,5.8-2.1C55.8,45.6,58.3,47,60.9,50.3z M56.1,49.2   c-0.9-1.2-1.2-1.2-2.5-0.8c-2.6,0.9-3.5,3.1-3.8,5.4c-0.3,2.2,0.6,4.3,2.4,5.7c1.2,0.9,2.7,1.1,4.2,0.3c0.4-0.2,1-0.6,1.1-1   C58.2,55.4,58,52.1,56.1,49.2z"></path></g></svg>