<svg height='100px' width='100px'  fill="#FFF" xmlns="http://www.w3.org/2000/svg" xmlns:xlink="http://www.w3.org/1999/xlink" version="1.1" x="0px" y="0px" viewBox="0 0 100 100" enable-background="new 0 0 100 100" xml:space="preserve"><g><path d="M68.1,24.7c1.3,0.5,2.4,1,3.6,1.5c1,0.4,1.6,1.1,1.4,2.3c-0.2,1.2-1.3,1.3-2.2,1.3c-2.2,0.1-4.2-0.6-5.4-2.6   c-1.3-2-2.3-4.2-3.4-6.3c-0.3-0.6-0.1-1.4,0-2.1c1.4-4.7,3.7-8.7,8-11.2c0.1,0,0.1-0.1,0.2-0.1C72,6.6,73.5,5.1,75.2,5   c3-0.1,6,0.7,8.5,2.6c0.8,0.6,1.7,1.3,2.6,1.6c3.4,1,4.7,3.8,5.9,6.5c1,2.2,1.6,4.5,2,6.9c0.3,1.6,0,3.3-0.2,5   c-0.4,4.4-2.7,7.7-6.1,10.4c-2.9,2.3-5.7,4.6-8.6,6.8c-5.1,3.9-10.9,6.3-17.2,7.4c-4.2,0.7-8.4,1.2-12.7,1   c-2.1-0.1-4.3,0.5-6.4,0.7c-2.7,0.3-5.4,0.5-8.1,0.7c-2.4,0.2-4.8,0.5-7.1,0.7c-1.6,0.1-3.2,0.2-4.8,0.1c-2.6-0.1-5.1-0.3-7.7-0.4   C11.5,55,9,53,6.6,49.7c0.8,0,1.2-0.1,1.7-0.1c5.3,0.2,10.6,1.4,16,0.3c1.4-0.3,2.9-0.1,4.3-0.3c3.6-0.3,7.2-0.7,10.7-1   c1.2-0.1,2.4-0.5,3.6-0.4c5.3,0.4,10.4-0.5,15.5-1.5c4.9-0.9,9.3-2.8,13.2-5.9c3.4-2.7,6.6-5.6,10.1-8c1.4-1,2.6-1.9,3.4-3.3   c3-5.1,3-10.5,0.9-15.9c-0.1-0.3-0.5-0.7-0.8-0.9c-2.3-1.8-6.1-1.8-8.5-0.1c-1,0.7-2,1.4-3,2C70.9,16.7,68.4,20.9,68.1,24.7z"></path><path d="M73.1,78.2c-0.9,0.2-1.6,0.5-2.2,0.4c-3.6-0.6-8.4,5-6,9.6c0.3,0.5,0.8,1.1,1.4,1.2c1.3,0.2,2.8,0.5,4,0.2   c2.7-0.7,5.4-1.5,7.9-2.6c2.9-1.2,5-3.4,6.3-6.3c1-2.1,2.1-4.1,2.4-6.5c0.5-4.1-0.6-6-4.5-7.3c-3.6-1.2-7.4-1.4-11.1-1.4   c-1.2,0-2.4-0.1-3.6-0.1c-1.2,0-2.4,0-3.6,0.1c-4.8,0.4-9.5,0.8-14.3,1.2c-0.8,0.1-1.6,0.1-2.4,0.2c-2.4,0.3-4.8,0.6-7.1,0.9   c-1,0.1-2.1,0.1-3.1,0.5c-3,1-6,0.9-9,0.7c-2.5-0.2-5.1-0.1-7.6,0.2c-2.3,0.3-4.4,0.3-6.6-0.5c-1.4-0.6-2.9-1-4.3-1.6   c-1.2-0.5-2.2-1.4-2.7-2.7C7.2,64.2,7.4,64,7.5,64c3.4,0.6,6.8,0.2,10.3-0.2c2.4-0.2,4.8,0,7.2,0c1.6,0,3.2-0.3,4.7-0.5   c2.2-0.3,4.4-0.8,6.6-1.2c1.5-0.2,3-0.4,4.5-0.6c2.1-0.2,4.1-0.3,6.2-0.5c4.1-0.4,8.1-0.8,12.2-1.2c1-0.1,1.9-0.2,2.9-0.2   c3.2,0.1,6.4,0.3,9.6,0.5c6.2,0.4,11.8,2.7,16.9,6.3c3.2,2.2,3.9,5.5,4.4,9c0.5,4.2-1.3,7.8-3.7,11.1c-0.4,0.6-1.1,1-1.7,1.3   c-3.2,1.9-6.7,3.4-9.7,5.6c-3.3,2.4-10,2-12.8-0.4c-2.8-2.4-5-5.2-7-8.1c-1.1-1.6-1.1-3.7,0.3-5.6c0.8-1.1,1.7-2.1,2.7-3.1   c2.6-2.6,5.7-3.1,8.9-1.3C71.1,75.6,72.6,76,73.1,78.2z"></path><path d="M5.7,31.1c0.7-0.1,1.3-0.3,2-0.2c2.5,0.3,5,1,7.6,1.1c3.3,0.2,6.7,0.3,10.1,0c2.9-0.2,5.7-0.7,8.5-1.4   c4.4-1.2,8-3.7,10.1-7.8c0.6-1.2,0.8-2.7,0.9-4.1c0.1-1.4-0.2-2.9-0.4-4.3c-0.2-1.3-0.8-1.7-2.2-1.6c-1.9,0.2-4.5,2-5.6,4   c0.6,1,1.2,2,1.7,3.1c0.4,1.1,0,1.7-1.2,1.7c-1.3,0-2.6-0.1-3.5-1.3c-0.9-1.1-1.8-2.2-2.7-3.3c-0.8-1-0.9-2.2-0.6-3.4   c1.1-4.4,6.8-7.3,10.9-5.3c2.9,1.4,5.9,2.9,8,5.6c0.3,0.4,0.9,0.9,1,1.3c0.8,3.5,1.9,7,0.8,10.6c-0.6,2.1-1.8,3.8-3.6,5.3   c-4,3.2-8.6,4.9-13.6,5.3c-2.1,0.2-4.3,0.4-6.4,0.7c-4.5,0.6-8.9-0.3-13.4-0.8c-2.6-0.3-4.7-1.4-6.6-3c-0.6-0.5-1.2-1-1.8-1.5   C5.7,31.5,5.7,31.3,5.7,31.1z"></path></g></svg>