<svg height='100px' width='100px'  fill="#FFF" xmlns="http://www.w3.org/2000/svg" xmlns:xlink="http://www.w3.org/1999/xlink" version="1.1" x="0px" y="0px" viewBox="0 0 100 100" enable-background="new 0 0 100 100" xml:space="preserve"><g><path d="M31,29c-1.3,0.3-2.3,0.5-3.3,0.7c-1.8,0.2-3.6,0.4-5.5,0.6c-1,0.1-2.1,0.1-3.1,0.2c-0.4,0-0.9,0.2-1.3,0.1   c-3.2-0.2-6.5-0.4-9.8-0.6C6.9,27,6.2,11.4,7.3,6.8c3.6-0.4,7.3-0.9,11-1.3c2.6-0.3,5.3-0.3,8-0.5c1.3-0.1,2.3,0.1,2.9,1.4   c0.1,0.3,0.5,0.8,0.9,0.8c1.7,0.3,2,1.5,2,3c-0.1,2.7-0.3,5.3-0.3,8c0,1.8,0,3.7,0.3,5.5C32.2,25.6,31.9,27.4,31,29z M26.5,24.8   c-0.1-4-0.3-7.9-0.4-11.7c-0.1-1.8-0.2-2.1-2.1-2c-3.3,0.1-6.6,0.2-9.9,0.4c-2.3,0.1-2.7,0.5-2.6,2.8c0.1,2.9,0.3,5.8,0.5,8.6   c0,0.6,0.3,1.2,0.4,1.9C17.2,24.8,21.8,24.8,26.5,24.8z"></path><path d="M67.9,7.4c6.2,0,11.9,0,17.7,0c0.9,0,1.8,0.2,2.6,0.3c1.3,0.2,2.1,0.8,2.2,2.3c0.2,1.5,1,2.9,1.2,4.4   c0.4,3.2,0.5,6.5,0.7,9.7c0.1,2.2,0,4.4,0.1,6.6c0,2.5-1.5,3.8-4,3.5c-2.9-0.3-5.9-0.5-8.8-1c-2.6-0.4-5.2-1.1-7.8-1.8   c-1.1-0.3-1.7-1.2-1.8-2.3c-0.4-3.1-0.8-6.1-1.2-9.2c-0.2-1.9-0.5-3.8-0.6-5.7C68,12.1,68,9.9,67.9,7.4z M74,11.6   c0.2,5.3,0.3,10.4,0.5,15.7c4.2-1.1,8,0.5,12.2,0.7c0.1-5.5,0.2-10.8,0.3-16.3C82.7,11.6,78.5,11.6,74,11.6z"></path><path d="M32.7,50c0,2.4,0.1,4.7,0,7.1c-0.1,1.5-0.6,3-1,4.5c-0.3,0.9-1,1.1-1.9,1.2c-1.1,0.1-2.3,0.5-3.4,0.6   c-1.7,0.2-3.5,0.4-5.3,0.4c-2.1,0-4.3-0.2-6.4-0.3c-1.4,0-2.8,0.1-4.1,0.3c-1.7,0.2-2.8-0.6-2.9-2.3c-0.3-5.2-0.6-10.3-0.9-15.5   C6.6,45,6.8,44,6.9,43c0.2-2.1,1.6-3.1,3.7-3c2.7,0,5.4-0.2,8.1-0.3c3.7-0.1,7.4-0.3,11-0.3c1.5,0,2.6,1.2,2.7,3.1   c0.1,2.5,0,5,0,7.5C32.6,50,32.7,50,32.7,50z M12.8,44c0,2.7,0,5,0,7.4c0,1.8,0,3.7,0,5.5c0,1.9,0.1,2,2,2c1.1,0,2.2,0.1,3.3,0.1   c2.7,0.1,5.4,0.2,8.2,0.2c0.6,0,1.2-0.3,1.9-0.5c0.1-3.6,0.2-6.9,0.3-10.3c0-0.7,0-1.5-0.1-2.2c-0.1-1.6-0.4-1.9-2.1-1.9   c-0.2,0-0.4,0-0.7,0c-3.4-0.1-6.8-0.2-10.2-0.2C14.6,43.9,13.6,44,12.8,44z"></path><path d="M8.4,71.8c1.7-0.8,3.1-1.7,4.9-0.8c0.2,0.1,0.6,0.1,0.9,0.1c3.4-0.7,6.8,0.2,10.2,0.1c0.6,0,1.2-0.2,1.7-0.2   c1,0,2.1-0.1,3.1,0.1c1.2,0.3,2.4,0.8,2.5,2.4c0.1,0.6,0.4,1.1,0.7,1.6c0.7,1.1,0.7,2.3,0.6,3.6c-0.1,2.9-0.1,5.9,0,8.8   c0,1.8-0.6,3.1-1.8,4.4c-0.2,0.2-0.4,0.3-0.5,0.4c-1.3,2.5-3.5,2.1-5.7,2c-1.8-0.1-3.7-0.2-5.5-0.1c-2.5,0.1-5,0.5-7.4,0.7   C11.4,95,10.8,95,10.3,95C9,94.9,8,93.9,8,92.7c0-3.5,0-7.1,0.1-10.6C8.2,78.7,8.3,75.3,8.4,71.8z M13.2,88.8c4.6,0,9.1,0,13.7,0   c0.2-4.9,0.4-9.4,0.6-14.2c-2.6,0.3-4.8,0.6-7.1,0.7c-2.3,0.1-4.6-0.2-7.2-0.3C13.2,79.8,13.2,84.4,13.2,88.8z"></path><path d="M38.5,9.1c0.6-2.1,2.2-2.9,4.4-2.8c3.4,0.2,6.8,0.3,10.2,0.3c1.3,0,2.6-0.2,4-0.2C59.2,6.2,60.6,7.7,62,9   c0.4,0.4,0.5,1.4,0.5,2.1c-0.1,4.5,0.5,9,1.2,13.4c0.4,2.6-1,4.9-2.2,7c-0.3,0.5-1.6,0.8-2.4,0.8c-2.5-0.1-5-0.3-7.5-0.5   c-2.6-0.2-5.1-0.4-7.7-0.6c-0.4,0-0.7,0.1-1.1,0.1c-1.9,0.3-2.3,0-2.8-1.8c0-0.1-0.1-0.3-0.1-0.4c-0.7-5.7-1.4-11.4-1.1-17.2   C38.8,11,38.6,10,38.5,9.1z M43.9,10.7c0.5,6,0.9,11.6,1.3,17.2c0.3,0.2,0.6,0.3,0.8,0.4c0.4,0.1,0.9,0.2,1.3,0.3   c3.8,0.5,7.4-0.8,11.3-0.9c-0.6-5.5-1.1-10.8-1.7-16.1C52.8,11.2,48.6,11,43.9,10.7z"></path><path d="M77.5,71.7c2.7,0.2,5.4,0.4,8.2,0.6c1.2,0.1,2.5-0.1,3.7-0.1c2.7,0,3.5,0.6,3.7,3.3c0.2,1.9,0.4,3.7-0.3,5.6   c-0.5,1.3-0.1,2.9,0.1,4.4c0.6,3.3-0.7,6.1-2.4,8.7c-0.2,0.3-0.7,0.5-1.1,0.5c-0.7,0.1-1.4,0.1-2-0.1c-3-0.9-6-0.5-9-0.3   c-2,0.1-4,0.2-6,0.2c-2.5,0-3.5-1.3-3.1-3.8c0.3-1.4,0.2-2.9,0.2-4.4c0.1-3.2,0-6.3,0.2-9.5c0.1-2.5,1.1-4.6,4.2-4.7   c1.2,0,2.3-0.3,3.5-0.4C77.5,71.6,77.5,71.6,77.5,71.7z M86.6,77.2c-4.1-0.3-7.9-0.6-11.7-0.8c-0.1,0.4-0.2,0.6-0.2,0.8   c-0.1,3.1-0.1,6.3-0.1,9.4c0,0.4,0,0.9,0.1,1.3c0.2,0.9,0.7,1.4,1.7,1.3c2.9-0.1,5.9-0.2,8.8-0.3c0.9,0,1.4-0.4,1.4-1.3   C86.6,84.3,86.6,80.8,86.6,77.2z"></path><path d="M41.1,64.2c0-1.9,0-3.6,0-5.4c0-1.9,0.2-3.8,0.3-5.7c0.1-2.6,0.1-5.2,0.3-7.7c0.1-1.1,0.7-2.2,1.2-3.3   c0.1-0.3,0.7-0.5,1.1-0.6c0.6-0.2,1.3-0.3,2-0.2c3.5,0.3,6.9-0.2,10.3-0.3c1.8,0,3.7,0.2,5.5,0.3c1.2,0.1,1.7,0.7,1.6,1.9   c-0.4,4.5,0.7,8.9,1,13.4c0.1,1.8,0,3.7-0.3,5.5c-0.3,1.9-2.6,3.2-5.1,3.4c-3.9,0.3-7.8-0.2-11.6-0.7   C45.4,64.4,43.4,64.4,41.1,64.2z M59.6,45.6c-4.4-0.3-8.4-0.6-12.3-0.9c-0.1,2.8,0.1,5.3-0.4,7.7c-0.5,2.4,0,4.7-0.3,7.3   c2.3,0.1,4.4,0.1,6.4,0.2c2,0.1,4,0.3,6.1,0.5C59.3,55.4,58.1,50.7,59.6,45.6z"></path><path d="M90.6,40.5c0.2,1.2,0.5,2.3,0.7,3.4c0.2,1.2,0.3,2.5,0.5,3.7c0.1,1.1,0.4,2.2,0.4,3.3c0,3.5,0.1,6.9,0,10.4   c0,1-0.3,2.1-0.7,3c-0.6,1.4-2.2,1.9-3.7,1.4c-0.7-0.3-1.6-0.4-2.3-0.4c-3.4,0.1-6.8,0.3-10.2,0.4c-0.8,0-1.6-0.1-2.4-0.2   c-1.5-0.1-2-1-2.5-2.4c-0.8-2.1-0.7-4.1-0.4-6.2c0.2-1.2-0.1-2.5-0.1-3.7c0.1-3.1,0.2-6.2,0.3-9.3c0.1-1.9,0.5-2.5,2.3-2.9   c2.2-0.5,4.3-0.7,6.5-1C82.9,39.5,86.5,40.3,90.6,40.5z M87.1,60.4c0.2-0.5,0.4-0.6,0.4-0.7c0-4.7,0-9.3,0-14   c0-1.4-0.3-1.7-1.8-1.6c-2.4,0.1-4.7,0.5-7.1,0.6c-4.5,0.2-4.3-0.3-4,5.1c0.1,2.8,0.5,5.6,0.8,8.4c0.2,2.1,0.1,2.2,2.3,2.2   C80.8,60.4,84,60.4,87.1,60.4z"></path><path d="M50.3,93.2c-2.5,0.2-5.4,0.4-8.3,0.7c-2.4,0.2-2.8-0.3-2.1-2.6c0.2-0.8,0.3-1.7,0.3-2.6c-0.1-3.2-0.3-6.3-0.3-9.5   c0-1.8,0.1-3.7,0.4-5.5c0.2-1.8,1.3-2.6,3-2.5c5.5,0.4,10.9-0.3,16.3-0.3c1.2,0,2.6-0.4,3.4,1c0.3,0.6,0.6,1.2,0.7,1.8   c0.1,1.8,0,3.5,0.1,5.3c0.2,2.6,0.6,5.3,0.7,7.9c0.1,1.7-0.1,3.5-0.3,5.3c0,0.3-0.5,0.8-0.8,0.9c-1.3,0.3-2.7,0.7-4.1,0.7   C56.4,93.7,53.6,93.4,50.3,93.2z M58.9,74.7c-4.8,0-9.3,0-13.9,0c0.6,4.9,1.3,9.7,0.1,14.5c4.6-0.2,9.1-0.4,13.8-0.7   C58.9,84,58.9,79.4,58.9,74.7z"></path></g></svg>